<?xml version="1.0" encoding="utf-8"?>
<!-- Generator: Adobe Illustrator 25.4.1, SVG Export Plug-In . SVG Version: 6.00 Build 0)  -->
<svg version="1.1" id="Camada_1" xmlns="http://www.w3.org/2000/svg" xmlns:xlink="http://www.w3.org/1999/xlink" x="0px" y="0px"
	 viewBox="0 0 512 512" style="enable-background:new 0 0 512 512;" xml:space="preserve">
<style type="text/css">
	.st0{fill:#7289DA;}
</style>
<path class="st0" d="M405.5,32.87h-299c-25.21,0-45.74,20.53-45.74,45.96v301.67c0,25.44,20.53,45.96,45.74,45.96h253.03
	l-11.83-41.28l28.56,26.55l27,24.99l47.97,42.39V78.83C451.24,53.4,430.71,32.87,405.5,32.87z M331.14,302.76
	c-56.89,0-76.62-25.65-87.14-57.55l-10.52-32.89c-7.89-24.01-17.1-42.75-46.04-42.75c-20.06,0-40.45,14.47-40.45,54.92
	c0,31.57,16.11,51.3,38.8,51.3c25.65,0,42.75-19.07,42.75-19.07l10.52,28.61c0,0-17.76,17.43-54.92,17.43
	c-46.04,0-71.69-26.96-71.69-76.95c0-51.96,25.65-82.54,73.99-82.54c43.74,0,65.77,15.78,79.58,58.53l10.85,32.88
	c7.89,24.01,21.7,41.44,54.92,41.44c22.36,0,34.2-4.93,34.2-17.1c0-9.54-5.59-16.44-22.36-20.39l-22.36-5.26
	c-27.29-6.58-38.14-20.72-38.14-43.08c0-35.84,28.94-47.03,58.53-47.03c33.54,0,53.93,12.17,56.56,41.76l-32.88,3.95
	c-1.32-14.14-9.87-20.06-25.65-20.06c-14.47,0-23.35,6.58-23.35,17.76c0,9.87,4.27,15.79,18.74,19.07l21.05,4.6
	c28.28,6.58,43.41,20.39,43.41,47.03C399.54,290.26,371.92,302.76,331.14,302.76z"/>
</svg>
