<?xml version="1.0" encoding="UTF-8" standalone="no"?>
<!-- Created with Inkscape (http://www.inkscape.org/) -->

<svg
        version="1.1"
        id="svg1"
        width="682.66669"
        height="682.66669"
        viewBox="0 0 682.66669 682.66669"
        xmlns="http://www.w3.org/2000/svg"
>
  <defs
     id="defs1">
    <clipPath
       clipPathUnits="userSpaceOnUse"
       id="clipPath6">
      <path
         d="M 0,512 H 512 V 0 H 0 Z"
         transform="translate(-405.44999,-479.15001)"
         id="path6" />
    </clipPath>
    <clipPath
       clipPathUnits="userSpaceOnUse"
       id="clipPath8">
      <path
         d="M 0,512 H 512 V 0 H 0 Z"
         transform="translate(-331.04998,-209.25)"
         id="path8" />
    </clipPath>
  </defs>
  <g
     id="layer-MC0"
     transform="translate(-1405.3332)">
    <path
       id="path5"
       d="m 0,0 h -299 c -25.2,0 -45.7,-20.5 -45.7,-46 v -301.7 c 0,-25.4 20.5,-46 45.7,-46 h 253 l -11.8,41.3 28.6,-26.5 27,-25 48,-42.4 V -45.9 C 45.7,-20.5 25.2,0 0,0"
       style="fill:#586aea;fill-opacity:1;fill-rule:nonzero;stroke:none"
       transform="matrix(1.3333333,0,0,-1.3333333,1945.9333,43.8)"
       clip-path="url(#clipPath6)" />
    <path
       id="path7"
       d="m 0,0 c -56.9,0 -76.6,25.6 -87.1,57.6 l -10.5,32.9 c -7.9,24 -17.1,42.8 -46,42.8 -20.1,0 -40.4,-14.5 -40.4,-54.9 0,-31.6 16.1,-51.3 38.8,-51.3 25.6,0 42.8,19.1 42.8,19.1 l 10.5,-28.6 c 0,0 -17.8,-17.4 -54.9,-17.4 -46,0 -71.7,27 -71.7,76.9 0,52 25.6,82.5 74,82.5 43.7,0 65.8,-15.8 79.6,-58.5 L -54,68.2 c 7.9,-24 21.7,-41.4 54.9,-41.4 22.4,0 34.2,4.9 34.2,17.1 0,9.5 -5.6,16.4 -22.4,20.4 l -22.4,5.3 c -27.3,6.6 -38.1,20.7 -38.1,43.1 0,35.8 28.9,47 58.5,47 33.5,0 53.9,-12.2 56.6,-41.8 L 34.4,114 c -1.3,14.1 -9.9,20.1 -25.6,20.1 -14.5,0 -23.4,-6.6 -23.4,-17.8 0,-9.9 4.3,-15.8 18.7,-19.1 l 21,-4.6 C 53.4,86 68.5,72.2 68.5,45.6 68.4,12.5 40.8,0 0,0"
       style="fill:#ffffff;fill-opacity:1;fill-rule:nonzero;stroke:none"
       transform="matrix(1.3333333,0,0,-1.3333333,1846.7333,403.66667)"
       clip-path="url(#clipPath8)" />
  </g>
</svg>
