<?xml version="1.0" encoding="UTF-8" standalone="no"?>
<!-- Created with Inkscape (http://www.inkscape.org/) -->

<svg
        width="127.99999"
        height="127.99999"
        viewBox="0 0 33.866664 33.866664"
        version="1.1"
        id="svg1"
        xml:space="preserve"
        inkscape:version="1.3.2 (091e20ef0f, 2023-11-25)"
        sodipodi:docname="net.androidwg.discord_fm.svg"
        xmlns:inkscape="http://www.inkscape.org/namespaces/inkscape"
        xmlns:sodipodi="http://sodipodi.sourceforge.net/DTD/sodipodi-0.dtd"
        xmlns:xlink="http://www.w3.org/1999/xlink"
        xmlns="http://www.w3.org/2000/svg"
><sodipodi:namedview
     id="namedview1"
     pagecolor="#505050"
     bordercolor="#eeeeee"
     borderopacity="1"
     inkscape:showpageshadow="0"
     inkscape:pageopacity="0"
     inkscape:pagecheckerboard="0"
     inkscape:deskcolor="#505050"
     inkscape:document-units="mm"
     inkscape:zoom="5.6568543"
     inkscape:cx="47.287766"
     inkscape:cy="67.528697"
     inkscape:window-width="1920"
     inkscape:window-height="1011"
     inkscape:window-x="0"
     inkscape:window-y="32"
     inkscape:window-maximized="1"
     inkscape:current-layer="layer2"><inkscape:page
       x="0"
       y="0"
       width="33.866665"
       height="33.866665"
       id="page1"
       margin="0"
       bleed="0" /></sodipodi:namedview><defs
     id="defs1"><clipPath
       clipPathUnits="userSpaceOnUse"
       id="clipPath2"><path
         d="M 0,512 H 512 V 0 H 0 Z"
         transform="translate(-405.45001,-479.15001)"
         id="path2" /></clipPath><clipPath
       clipPathUnits="userSpaceOnUse"
       id="clipPath4"><path
         d="M 0,512 H 512 V 0 H 0 Z"
         transform="translate(-331.05001,-209.25)"
         id="path4" /></clipPath><clipPath
       clipPathUnits="userSpaceOnUse"
       id="clipPath2-5"><path
         d="M 0,512 H 512 V 0 H 0 Z"
         transform="translate(-405.45001,-479.15001)"
         id="path2-9" /></clipPath><clipPath
       clipPathUnits="userSpaceOnUse"
       id="clipPath4-2"><path
         d="M 0,512 H 512 V 0 H 0 Z"
         transform="translate(-331.05001,-209.25)"
         id="path4-2" /></clipPath><clipPath
       clipPathUnits="userSpaceOnUse"
       id="clipPath5"><use
         x="0"
         y="0"
         xlink:href="#g3"
         id="use5" /></clipPath><clipPath
       clipPathUnits="userSpaceOnUse"
       id="clipPath4-8"><path
         d="M 0,512 H 512 V 0 H 0 Z"
         transform="translate(-331.05001,-209.25)"
         id="path4-4" /></clipPath></defs><g
     inkscape:groupmode="layer"
     id="layer2"
     inkscape:label="Icon"><g
       id="g4"
       clip-path="url(#clipPath5)"
       style="fill:#4756c4;fill-opacity:1"><g
         inkscape:label="Clip"
         id="g3"
         style="fill:#4756c4;fill-opacity:1"><path
           id="path1-7"
           d="m 0,0 h -299 c -25.2,0 -45.7,-20.5 -45.7,-46 v -301.7 c 0,-25.4 20.5,-46 45.7,-46 h 253 l -11.8,41.3 28.6,-26.5 27,-25 48,-42.4 V -45.9 C 45.7,-20.5 25.2,0 0,0"
           style="fill:#4756c4;fill-opacity:1;fill-rule:nonzero;stroke:none"
           transform="matrix(0.06491867,0,0,-0.06491867,26.638618,3.8348994)"
           clip-path="url(#clipPath2-5)" /></g><rect
         style="font-variation-settings:normal;opacity:0.274248;mix-blend-mode:overlay;vector-effect:none;fill:#4756c4;stroke:none;stroke-width:0.452283;stroke-linecap:butt;stroke-linejoin:miter;stroke-miterlimit:4;stroke-dasharray:none;stroke-dashoffset:0;stroke-opacity:1;-inkscape-stroke:none;fill-opacity:1"
         id="rect3"
         width="1.4203085"
         height="2.5409045"
         x="4.6910224"
         y="26.684614" /><path
         style="font-variation-settings:normal;opacity:0.16053512;vector-effect:none;fill:#4756c4;fill-opacity:1;stroke:none;stroke-width:0.368043;stroke-linecap:butt;stroke-linejoin:miter;stroke-miterlimit:4;stroke-dasharray:none;stroke-dashoffset:0;stroke-opacity:1;-inkscape-stroke:none"
         d="m 22.886319,26.712238 0.959254,1.193035 5.126302,5.447908 h 1.752864 l -1.112845,-2.992244 -6.65929,-6.250781 -0.826823,1.256771 z"
         id="path7" /></g><rect
       style="font-variation-settings:normal;opacity:1;vector-effect:none;fill:#4756c4;fill-opacity:1;stroke:none;stroke-width:0.301411;stroke-linecap:butt;stroke-linejoin:miter;stroke-miterlimit:4;stroke-dasharray:none;stroke-dashoffset:0;stroke-opacity:1;-inkscape-stroke:none"
       id="rect2"
       width="1.7399451"
       height="1.5875015"
       x="21.912415"
       y="27.80588"
       ry="0" /><g
       id="g2"
       transform="matrix(0.36804288,0,0,0.36804288,13.618693,10.686911)"
       style="fill:#3584e4;fill-opacity:1"><path
         id="path1"
         d="m 0,0 h -299 c -25.2,0 -45.7,-20.5 -45.7,-46 v -301.7 c 0,-25.4 20.5,-46 45.7,-46 h 253 l -11.8,41.3 28.6,-26.5 27,-25 48,-42.4 V -45.9 C 45.7,-20.5 25.2,0 0,0"
         style="fill:#586aea;fill-opacity:1;fill-rule:nonzero;stroke:none"
         transform="matrix(0.17638889,0,0,-0.17638889,35.376109,-22.930787)"
         clip-path="url(#clipPath2)" /><path
         id="path3-0"
         d="m 0,0 c -56.9,0 -76.6,25.6 -87.1,57.6 l -10.5,32.9 c -7.9,24 -17.1,42.8 -46,42.8 -20.1,0 -40.4,-14.5 -40.4,-54.9 0,-31.6 16.1,-51.3 38.8,-51.3 25.6,0 42.8,19.1 42.8,19.1 l 10.5,-28.6 c 0,0 -17.8,-17.4 -54.9,-17.4 -46,0 -71.7,27 -71.7,76.9 0,52 25.6,82.5 74,82.5 43.7,0 65.8,-15.8 79.6,-58.5 L -54,68.2 c 7.9,-24 21.7,-41.4 54.9,-41.4 22.4,0 34.2,4.9 34.2,17.1 0,9.5 -5.6,16.4 -22.4,20.4 l -22.4,5.3 c -27.3,6.6 -38.1,20.7 -38.1,43.1 0,35.8 28.9,47 58.5,47 33.5,0 53.9,-12.2 56.6,-41.8 L 34.4,114 c -1.3,14.1 -9.9,20.1 -25.6,20.1 -14.5,0 -23.4,-6.6 -23.4,-17.8 0,-9.9 4.3,-15.8 18.7,-19.1 l 21,-4.6 C 53.4,86 68.5,72.2 68.5,45.6 68.4,12.5 40.8,0 0,0"
         style="fill:#cccccc;fill-opacity:1;fill-rule:nonzero;stroke:none"
         transform="matrix(0.1763889,0,0,-0.1763889,22.252775,26.281316)"
         clip-path="url(#clipPath4-8)" /><path
         id="path3"
         d="m 0,0 c -56.9,0 -76.6,25.6 -87.1,57.6 l -10.5,32.9 c -7.9,24 -17.1,42.8 -46,42.8 -20.1,0 -40.4,-14.5 -40.4,-54.9 0,-31.6 16.1,-51.3 38.8,-51.3 25.6,0 42.8,19.1 42.8,19.1 l 10.5,-28.6 c 0,0 -17.8,-17.4 -54.9,-17.4 -46,0 -71.7,27 -71.7,76.9 0,52 25.6,82.5 74,82.5 43.7,0 65.8,-15.8 79.6,-58.5 L -54,68.2 c 7.9,-24 21.7,-41.4 54.9,-41.4 22.4,0 34.2,4.9 34.2,17.1 0,9.5 -5.6,16.4 -22.4,20.4 l -22.4,5.3 c -27.3,6.6 -38.1,20.7 -38.1,43.1 0,35.8 28.9,47 58.5,47 33.5,0 53.9,-12.2 56.6,-41.8 L 34.4,114 c -1.3,14.1 -9.9,20.1 -25.6,20.1 -14.5,0 -23.4,-6.6 -23.4,-17.8 0,-9.9 4.3,-15.8 18.7,-19.1 l 21,-4.6 C 53.4,86 68.5,72.2 68.5,45.6 68.4,12.5 40.8,0 0,0"
         style="fill:#ffffff;fill-opacity:1;fill-rule:nonzero;stroke:none"
         transform="matrix(0.17638889,0,0,-0.17638889,22.252775,24.676575)"
         clip-path="url(#clipPath4)" /></g><path
       style="font-variation-settings:normal;opacity:1;vector-effect:none;fill:#cccccc;fill-opacity:1;stroke:none;stroke-width:0.368043;stroke-linecap:butt;stroke-linejoin:miter;stroke-miterlimit:4;stroke-dasharray:none;stroke-dashoffset:0;stroke-opacity:1;-inkscape-stroke:none"
       d="m 26.177695,12.70565 v -0.590613 l -0.618929,0.07337 z"
       id="path10" /><path
       style="font-variation-settings:normal;opacity:1;vector-effect:none;fill:#cccccc;fill-opacity:1;stroke:none;stroke-width:0.368043;stroke-linecap:butt;stroke-linejoin:miter;stroke-miterlimit:4;stroke-dasharray:none;stroke-dashoffset:0;stroke-opacity:1;-inkscape-stroke:none"
       d="m 15.842642,18.62638 v 0.590613 l -0.217815,-0.294728 -0.01423,-0.109391 0.07656,-0.05668 0.07197,-0.05693 z"
       id="path11" /></g><g
     inkscape:label="Template"
     inkscape:groupmode="layer"
     id="layer1"
     sodipodi:insensitive="true"
     style="display:none"><circle
       cx="16.933336"
       cy="16.933104"
       r="15.743801"
       id="circle2892"
       style="display:inline;opacity:0.1;vector-effect:none;fill:none;fill-opacity:1;stroke:#000000;stroke-width:0.261937;stroke-linecap:butt;stroke-linejoin:miter;stroke-miterlimit:4;stroke-dasharray:0.261937, 0.261937;stroke-dashoffset:0;stroke-opacity:1;marker:none;marker-start:none;marker-mid:none;marker-end:none;paint-order:normal;enable-background:new" /><rect
       ry="2.0979576"
       rx="2.3021407"
       y="2.2473984"
       x="5.4226322"
       height="29.371408"
       width="23.021393"
       id="rect2894"
       style="display:inline;opacity:0.1;vector-effect:none;fill:none;fill-opacity:1;stroke:#000000;stroke-width:0.261937;stroke-linecap:butt;stroke-linejoin:miter;stroke-miterlimit:4;stroke-dasharray:0.261937, 0.261937;stroke-dashoffset:0;stroke-opacity:1;marker:none;marker-start:none;marker-mid:none;marker-end:none;paint-order:normal;enable-background:new" /><rect
       ry="2.096508"
       rx="2.096508"
       y="3.3058043"
       x="3.3060346"
       height="27.254602"
       width="27.254602"
       id="rect2896"
       style="display:inline;opacity:0.1;vector-effect:none;fill:none;fill-opacity:1;stroke:#000000;stroke-width:0.261937;stroke-linecap:butt;stroke-linejoin:miter;stroke-miterlimit:4;stroke-dasharray:0.261937, 0.261937;stroke-dashoffset:0;stroke-opacity:1;marker:none;marker-start:none;marker-mid:none;marker-end:none;paint-order:normal;enable-background:new" /><rect
       ry="2.302141"
       rx="2.0979576"
       y="7.5390649"
       x="2.2476325"
       height="23.021408"
       width="29.371407"
       id="rect2898"
       style="display:inline;opacity:0.1;vector-effect:none;fill:none;fill-opacity:1;stroke:#000000;stroke-width:0.261937;stroke-linecap:butt;stroke-linejoin:miter;stroke-miterlimit:4;stroke-dasharray:0.261937, 0.261937;stroke-dashoffset:0;stroke-opacity:1;marker:none;marker-start:none;marker-mid:none;marker-end:none;paint-order:normal;enable-background:new" /><path
       inkscape:connector-curvature="0"
       id="path2900"
       d="M 2.1480683e-6,30.956019 H 33.86667"
       style="display:inline;fill:none;stroke:#62a0ea;stroke-width:0.529167;stroke-linecap:butt;stroke-linejoin:miter;stroke-miterlimit:4;stroke-dasharray:none;stroke-opacity:1;enable-background:new" /></g></svg>
